0
SECTION
2
HEADER
9
$INSUNITS
70
4
9
$ACADVER
1
AC1014
9
$HANDSEED
5
FFFF
0
ENDSEC
0
SECTION
2
TABLES
0
TABLE
2
VPORT
5
8
100
AcDbSymbolTable
0
ENDTAB
0
TABLE
2
LTYPE
5
5
100
AcDbSymbolTable
0
LTYPE
5
14
100
AcDbSymbolTableRecord
100
AcDbLinetypeTableRecord
2
BYBLOCK
70
0
0
LTYPE
5
15
100
AcDbSymbolTableRecord
100
AcDbLinetypeTableRecord
2
BYLAYER
70
0
0
ENDTAB
0
TABLE
2
LAYER
5
2
100
AcDbSymbolTable
70
2
0
LAYER
5
50
100
AcDbSymbolTableRecord
100
AcDbLayerTableRecord
2
0
70
0
6
CONTINUOUS
0
ENDTAB
0
TABLE
2
STYLE
5
3
100
AcDbSymbolTable
70
1
0
STYLE
5
11
100
AcDbSymbolTableRecord
100
AcDbTextStyleTableRecord
2
STANDARD
70
0
0
ENDTAB
0
TABLE
2
VIEW
5
6
100
AcDbSymbolTable
70
0
0
ENDTAB
0
TABLE
2
UCS
5
7
100
AcDbSymbolTable
70
0
0
ENDTAB
0
TABLE
2
APPID
5
9
100
AcDbSymbolTable
70
2
0
APPID
5
12
100
AcDbSymbolTableRecord
100
AcDbRegAppTableRecord
2
ACAD
70
0
0
ENDTAB
0
TABLE
2
DIMSTYLE
5
A
100
AcDbSymbolTable
70
1
0
ENDTAB
0
TABLE
2
BLOCK_RECORD
5
1
100
AcDbSymbolTable
70
1
0
BLOCK_RECORD
5
1F
100
AcDbSymbolTableRecord
100
AcDbBlockTableRecord
2
*MODEL_SPACE
0
BLOCK_RECORD
5
1B
100
AcDbSymbolTableRecord
100
AcDbBlockTableRecord
2
*PAPER_SPACE
0
ENDTAB
0
ENDSEC
0
SECTION
2
BLOCKS
0
BLOCK
5
20
100
AcDbEntity
100
AcDbBlockBegin
2
*MODEL_SPACE
0
ENDBLK
5
21
100
AcDbEntity
100
AcDbBlockEnd
0
BLOCK
5
1C
100
AcDbEntity
100
AcDbBlockBegin
2
*PAPER_SPACE
0
ENDBLK
5
1D
100
AcDbEntity
100
AcDbBlockEnd
0
ENDSEC
0
SECTION
2
ENTITIES
0
LINE
5
100
100
AcDbEntity
8
0
100
AcDbLine
10
-395.99921366373707
20
-520.00149612426765
30
0
11
83.999919573465931
21
-520.00414454142265
31
0
0
LINE
5
101
100
AcDbEntity
8
0
100
AcDbLine
10
83.999919573465931
20
-520.00414454142265
30
0
11
83.999120203653987
21
-1120.0024373372398
31
0
0
LINE
5
102
100
AcDbEntity
8
0
100
AcDbLine
10
83.999120203653987
20
-1120.0024373372398
30
0
11
-396.00186208089201
21
-1120.0024373372398
31
0
0
LINE
5
103
100
AcDbEntity
8
0
100
AcDbLine
10
-396.00186208089201
20
-1120.0024373372398
30
0
11
-395.99921366373707
21
-520.00149612426765
31
0
0
LINE
5
104
100
AcDbEntity
8
0
100
AcDbLine
10
227.99913228352867
20
-500.00429941813161
30
0
11
227.99913228352867
21
-1220.0043436686201
31
0
0
LINE
5
105
100
AcDbEntity
8
0
100
AcDbLine
10
227.99913228352867
20
-1220.0043436686201
30
0
11
127.99906692504884
21
-1220.0043436686199
31
0
0
LINE
5
106
100
AcDbEntity
8
0
100
AcDbLine
10
127.99906692504884
20
-1220.0043436686199
30
0
11
127.99906692504885
21
-500.0042994181315
31
0
0
LINE
5
107
100
AcDbEntity
8
0
100
AcDbLine
10
127.99906692504885
20
-500.0042994181315
30
0
11
227.99913228352867
21
-500.00429941813161
31
0
0
LINE
5
108
100
AcDbEntity
8
0
100
AcDbLine
10
327.99868087768562
20
-500.00429941813161
30
0
11
327.99868087768562
21
-1220.0043436686201
31
0
0
LINE
5
109
100
AcDbEntity
8
0
100
AcDbLine
10
327.99868087768562
20
-1220.0043436686201
30
0
11
227.99913228352867
21
-1220.0043436686201
31
0
0
LINE
5
110
100
AcDbEntity
8
0
100
AcDbLine
10
227.99913228352867
20
-1220.0043436686201
30
0
11
227.99913228352867
21
-500.00429941813161
31
0
0
LINE
5
111
100
AcDbEntity
8
0
100
AcDbLine
10
227.99913228352867
20
-500.00429941813161
30
0
11
327.99868087768562
21
-500.00429941813161
31
0
0
LINE
5
112
100
AcDbEntity
8
0
100
AcDbLine
10
427.99793879191088
20
-500.00429941813161
30
0
11
427.99793879191088
21
-1220.0043436686201
31
0
0
LINE
5
113
100
AcDbEntity
8
0
100
AcDbLine
10
427.99793879191088
20
-1220.0043436686201
30
0
11
327.99868087768562
21
-1220.0043436686201
31
0
0
LINE
5
114
100
AcDbEntity
8
0
100
AcDbLine
10
327.99868087768562
20
-1220.0043436686201
30
0
11
327.99868087768562
21
-500.00429941813161
31
0
0
LINE
5
115
100
AcDbEntity
8
0
100
AcDbLine
10
327.99868087768562
20
-500.00429941813161
30
0
11
427.99793879191088
21
-500.00429941813161
31
0
0
LINE
5
116
100
AcDbEntity
8
0
100
AcDbLine
10
527.99984512329115
20
-500.00429941813161
30
0
11
527.99984512329115
21
-1220.0043436686201
31
0
0
LINE
5
117
100
AcDbEntity
8
0
100
AcDbLine
10
527.99984512329115
20
-1220.0043436686201
30
0
11
427.99793879191088
21
-1220.0043436686201
31
0
0
LINE
5
118
100
AcDbEntity
8
0
100
AcDbLine
10
427.99793879191088
20
-1220.0043436686201
30
0
11
427.99793879191088
21
-500.00429941813161
31
0
0
LINE
5
119
100
AcDbEntity
8
0
100
AcDbLine
10
427.99793879191088
20
-500.00429941813161
30
0
11
527.99984512329115
21
-500.00429941813161
31
0
0
LINE
5
120
100
AcDbEntity
8
0
100
AcDbLine
10
627.9991353352865
20
-500.00429941813161
30
0
11
627.9991353352865
21
-1220.0043436686201
31
0
0
LINE
5
121
100
AcDbEntity
8
0
100
AcDbLine
10
627.9991353352865
20
-1220.0043436686201
30
0
11
527.99984512329115
21
-1220.0043436686201
31
0
0
LINE
5
122
100
AcDbEntity
8
0
100
AcDbLine
10
527.99984512329115
20
-1220.0043436686201
30
0
11
527.99984512329115
21
-500.00429941813161
31
0
0
LINE
5
123
100
AcDbEntity
8
0
100
AcDbLine
10
527.99984512329115
20
-500.00429941813161
30
0
11
627.9991353352865
21
-500.00429941813161
31
0
0
LINE
5
124
100
AcDbEntity
8
0
100
AcDbLine
10
727.99839324951176
20
-500.00429941813161
30
0
11
727.99839324951176
21
-1220.0043436686201
31
0
0
LINE
5
125
100
AcDbEntity
8
0
100
AcDbLine
10
727.99839324951176
20
-1220.0043436686201
30
0
11
627.9991353352865
21
-1220.0043436686201
31
0
0
LINE
5
126
100
AcDbEntity
8
0
100
AcDbLine
10
627.9991353352865
20
-1220.0043436686201
30
0
11
627.9991353352865
21
-500.00429941813161
31
0
0
LINE
5
127
100
AcDbEntity
8
0
100
AcDbLine
10
627.9991353352865
20
-500.00429941813161
30
0
11
727.99839324951176
21
-500.00429941813161
31
0
0
LINE
5
128
100
AcDbEntity
8
0
100
AcDbLine
10
828.00029958089203
20
-500.00429941813161
30
0
11
828.00029958089203
21
-1220.0043436686201
31
0
0
LINE
5
129
100
AcDbEntity
8
0
100
AcDbLine
10
828.00029958089203
20
-1220.0043436686201
30
0
11
727.99839324951176
21
-1220.0043436686201
31
0
0
LINE
5
130
100
AcDbEntity
8
0
100
AcDbLine
10
727.99839324951176
20
-1220.0043436686201
30
0
11
727.99839324951176
21
-500.00429941813161
31
0
0
LINE
5
131
100
AcDbEntity
8
0
100
AcDbLine
10
727.99839324951176
20
-500.00429941813161
30
0
11
828.00029958089203
21
-500.00429941813161
31
0
0
LINE
5
132
100
AcDbEntity
8
0
100
AcDbLine
10
927.99955749511741
20
-500.00429941813161
30
0
11
927.99955749511741
21
-1220.0043436686201
31
0
0
LINE
5
133
100
AcDbEntity
8
0
100
AcDbLine
10
927.99955749511741
20
-1220.0043436686201
30
0
11
828.00029958089203
21
-1220.0043436686201
31
0
0
LINE
5
134
100
AcDbEntity
8
0
100
AcDbLine
10
828.00029958089203
20
-1220.0043436686201
30
0
11
828.00029958089203
21
-500.00429941813161
31
0
0
LINE
5
135
100
AcDbEntity
8
0
100
AcDbLine
10
828.00029958089203
20
-500.00429941813161
30
0
11
927.99955749511741
21
-500.00429941813161
31
0
0
LINE
5
136
100
AcDbEntity
8
0
100
AcDbLine
10
-446.00019912719733
20
-816.00413258870458
30
0
11
-395.99921366373701
21
-816.00413258870458
31
0
0
LINE
5
137
100
AcDbEntity
8
0
100
AcDbLine
10
-395.99921366373701
20
-816.00413258870458
30
0
11
-396.00186208089201
21
-1220.0043436686201
31
0
0
LINE
5
138
100
AcDbEntity
8
0
100
AcDbLine
10
-396.00186208089201
20
-1220.0043436686201
30
0
11
-446.00019912719733
21
-1220.0043436686199
31
0
0
LINE
5
139
100
AcDbEntity
8
0
100
AcDbLine
10
-446.00019912719733
20
-1220.0043436686199
30
0
11
-446.00019912719733
21
-816.00413258870458
31
0
0
LINE
5
140
100
AcDbEntity
8
0
100
AcDbLine
10
-496.00115229288747
20
-816.00413258870458
30
0
11
-446.00019912719733
21
-816.00413258870458
31
0
0
LINE
5
141
100
AcDbEntity
8
0
100
AcDbLine
10
-446.00019912719733
20
-816.00413258870458
30
0
11
-446.00019912719733
21
-1220.0043436686199
31
0
0
LINE
5
142
100
AcDbEntity
8
0
100
AcDbLine
10
-446.00019912719733
20
-1220.0043436686199
30
0
11
-496.00115229288741
21
-1220.0043436686199
31
0
0
LINE
5
143
100
AcDbEntity
8
0
100
AcDbLine
10
-496.00115229288741
20
-1220.0043436686199
30
0
11
-496.00115229288747
21
-816.00413258870458
31
0
0
LINE
5
144
100
AcDbEntity
8
0
100
AcDbLine
10
127.99906692504885
20
-1120.0024373372398
30
0
11
127.99906692504885
21
-1170.00339050293
31
0
0
LINE
5
145
100
AcDbEntity
8
0
100
AcDbLine
10
127.99906692504885
20
-1170.00339050293
30
0
11
-396.00186208089201
21
-1170.0033905029297
31
0
0
LINE
5
146
100
AcDbEntity
8
0
100
AcDbLine
10
-396.00186208089201
20
-1170.0033905029297
30
0
11
-396.00186208089201
21
-1120.0024373372398
31
0
0
LINE
5
147
100
AcDbEntity
8
0
100
AcDbLine
10
-396.00186208089201
20
-1120.0024373372398
30
0
11
127.99906692504885
21
-1120.0024373372398
31
0
0
LINE
5
148
100
AcDbEntity
8
0
100
AcDbLine
10
127.99906692504885
20
-1170.00339050293
30
0
11
127.99906692504884
21
-1220.0043436686199
31
0
0
LINE
5
149
100
AcDbEntity
8
0
100
AcDbLine
10
127.99906692504884
20
-1220.0043436686199
30
0
11
-396.00186208089201
21
-1220.0043436686201
31
0
0
LINE
5
150
100
AcDbEntity
8
0
100
AcDbLine
10
-396.00186208089201
20
-1220.0043436686201
30
0
11
-396.00186208089201
21
-1170.0033905029297
31
0
0
LINE
5
151
100
AcDbEntity
8
0
100
AcDbLine
10
-396.00186208089201
20
-1170.0033905029297
30
0
11
127.99906692504885
21
-1170.00339050293
31
0
0
LWPOLYLINE
5
152
100
AcDbEntity
8
0
100
AcDbPolyline
90
4
70
1
43
0.0
10
1943.9995574951174
20
-0.0032373886982289459
10
-495.99850387573247
20
0
10
-496.00115229288747
20
-1219.9990468343101
10
1943.9995574951174
20
-1220.0043436686199
0
ENDSEC
0
SECTION
2
OBJECTS
0
DICTIONARY
5
C
100
AcDbDictionary
3
ACAD_GROUP
350
D
3
ACAD_MLINESTYLE
350
17
0
DICTIONARY
5
D
100
AcDbDictionary
0
DICTIONARY
5
1A
330
C
100
AcDbDictionary
0
DICTIONARY
5
17
100
AcDbDictionary
0
ENDSEC
0
EOF
